<svg width="4247" height="1522" viewBox="0 0 4247 1522" fill="none" xmlns="http://www.w3.org/2000/svg">
<path d="M168.951 338.988H458.019L306.614 1399.07C296.546 1469.56 236.176 1521.92 164.97 1521.92C77.899 1521.92 11.0141 1444.8 23.325 1358.6L168.951 338.988Z" fill="url(#paint0_linear_1247_277)"/>
<path d="M712.325 118.183C724.121 49.8884 783.366 0 852.671 0C941.022 0 1008.06 79.6062 993.018 166.667L831.083 1104.17H542.015L712.325 118.183Z" fill="url(#paint1_linear_1247_277)"/>
<path d="M168.773 338.914H457.842L830.9 1104.09H541.832L168.773 338.914Z" fill="url(#paint2_linear_1247_277)"/>
<path d="M1094.4 640.798L1098.8 641.598V1104H1030.4V575.998H1126.8L1400.8 1038L1396.4 1038.8V575.998H1464.8V1104H1367.6L1094.4 640.798Z" fill="white"/>
<path d="M1722.19 1113.6C1688.32 1113.6 1658.19 1106 1631.79 1090.8C1605.65 1075.6 1585.12 1055.07 1570.19 1029.2C1555.25 1003.07 1547.79 973.598 1547.79 940.798C1547.79 907.998 1555.25 878.398 1570.19 851.998C1585.12 825.598 1605.65 804.665 1631.79 789.198C1658.19 773.732 1688.32 765.998 1722.19 765.998C1755.79 765.998 1785.52 773.732 1811.39 789.198C1837.52 804.665 1857.92 825.598 1872.59 851.998C1887.25 878.398 1894.59 907.998 1894.59 940.798C1894.59 973.598 1887.25 1003.07 1872.59 1029.2C1857.92 1055.07 1837.52 1075.6 1811.39 1090.8C1785.52 1106 1755.79 1113.6 1722.19 1113.6ZM1722.19 1054C1743.52 1054 1762.05 1049.07 1777.79 1039.2C1793.79 1029.33 1806.19 1015.87 1814.99 998.798C1823.79 981.465 1828.19 961.998 1828.19 940.398C1828.19 918.798 1823.79 899.332 1814.99 881.998C1806.19 864.665 1793.79 850.932 1777.79 840.798C1762.05 830.665 1743.52 825.598 1722.19 825.598C1700.59 825.598 1681.79 830.665 1665.79 840.798C1649.79 850.932 1637.25 864.665 1628.19 881.998C1619.39 899.332 1614.99 918.798 1614.99 940.398C1614.99 961.998 1619.39 981.465 1628.19 998.798C1637.25 1015.87 1649.79 1029.33 1665.79 1039.2C1681.79 1049.07 1700.59 1054 1722.19 1054Z" fill="white"/>
<path d="M1938.95 775.598H2013.75L2120.95 1039.6L2228.15 775.598H2302.55L2162.15 1104H2080.15L1938.95 775.598Z" fill="white"/>
<path d="M2631.84 1104V1040C2629.71 1046.67 2623.44 1055.87 2613.04 1067.6C2602.91 1079.33 2588.91 1090 2571.04 1099.6C2553.44 1108.93 2532.64 1113.6 2508.64 1113.6C2478.24 1113.6 2450.64 1106.4 2425.84 1092C2401.31 1077.6 2381.71 1057.47 2367.04 1031.6C2352.64 1005.47 2345.44 974.932 2345.44 939.998C2345.44 905.065 2352.64 874.665 2367.04 848.798C2381.71 822.665 2401.31 802.398 2425.84 787.998C2450.64 773.332 2478.24 765.998 2508.64 765.998C2532.38 765.998 2552.91 770.265 2570.24 778.798C2587.84 787.332 2601.84 797.198 2612.24 808.398C2622.91 819.598 2629.18 829.198 2631.04 837.198V775.598H2699.84V1104H2631.84ZM2414.24 939.998C2414.24 963.732 2419.44 984.265 2429.84 1001.6C2440.24 1018.93 2453.71 1032.4 2470.24 1042C2487.04 1051.33 2504.91 1056 2523.84 1056C2544.11 1056 2562.24 1051.2 2578.24 1041.6C2594.24 1032 2606.91 1018.53 2616.24 1001.2C2625.58 983.598 2630.24 963.198 2630.24 939.998C2630.24 916.798 2625.58 896.532 2616.24 879.198C2606.91 861.598 2594.24 847.998 2578.24 838.398C2562.24 828.532 2544.11 823.598 2523.84 823.598C2504.91 823.598 2487.04 828.398 2470.24 837.998C2453.71 847.598 2440.24 861.065 2429.84 878.398C2419.44 895.732 2414.24 916.265 2414.24 939.998Z" fill="white"/>
<path d="M2927.64 839.598C2927.64 863.332 2932.44 885.065 2942.04 904.798C2951.64 924.265 2965.11 939.865 2982.44 951.598C2999.78 963.065 3020.04 968.798 3043.24 968.798C3066.71 968.798 3087.11 963.065 3104.44 951.598C3121.78 939.865 3135.24 924.265 3144.84 904.798C3154.44 885.065 3159.24 863.332 3159.24 839.598C3159.24 815.865 3154.44 794.265 3144.84 774.798C3135.24 755.332 3121.78 739.732 3104.44 727.998C3087.11 716.265 3066.71 710.398 3043.24 710.398C3020.04 710.398 2999.78 716.265 2982.44 727.998C2965.11 739.732 2951.64 755.332 2942.04 774.798C2932.44 794.265 2927.64 815.865 2927.64 839.598ZM2766.04 839.598C2766.04 801.198 2772.98 765.465 2786.84 732.398C2800.98 699.065 2820.58 669.998 2845.64 645.198C2870.71 620.398 2900.04 601.065 2933.64 587.198C2967.51 573.332 3004.04 566.398 3043.24 566.398C3083.24 566.398 3120.04 573.332 3153.64 587.198C3187.51 601.065 3216.84 620.398 3241.64 645.198C3266.71 669.998 3286.04 699.065 3299.64 732.398C3313.51 765.465 3320.44 801.198 3320.44 839.598C3320.44 878.265 3313.78 914.265 3300.44 947.598C3287.11 980.665 3268.04 1009.73 3243.24 1034.8C3218.71 1059.6 3189.51 1078.93 3155.64 1092.8C3121.78 1106.67 3084.31 1113.6 3043.24 1113.6C3001.11 1113.6 2962.98 1106.67 2928.84 1092.8C2894.98 1078.93 2865.91 1059.6 2841.64 1034.8C2817.38 1009.73 2798.71 980.665 2785.64 947.598C2772.58 914.265 2766.04 878.265 2766.04 839.598Z" fill="white"/>
<path d="M3379.93 575.998H3601.13C3635.53 575.998 3666.6 582.398 3694.33 595.198C3722.06 607.732 3744.06 626.398 3760.33 651.198C3776.86 675.998 3785.13 706.398 3785.13 742.398C3785.13 778.398 3776.86 809.465 3760.33 835.598C3744.06 861.465 3722.06 881.465 3694.33 895.598C3666.6 909.465 3635.53 916.398 3601.13 916.398H3534.73V1104H3379.93V575.998ZM3534.73 795.998H3557.93C3569.66 795.998 3580.06 794.398 3589.13 791.198C3598.46 787.732 3605.8 782.398 3611.13 775.198C3616.46 767.732 3619.13 758.132 3619.13 746.398C3619.13 734.665 3616.46 725.198 3611.13 717.998C3605.8 710.532 3598.46 705.065 3589.13 701.598C3580.06 698.132 3569.66 696.398 3557.93 696.398H3534.73V795.998Z" fill="white"/>
<path d="M4054.85 566.398C4088.98 566.398 4119.25 570.132 4145.65 577.598C4172.32 584.798 4193.78 592.532 4210.05 600.798C4226.58 609.065 4236.72 614.665 4240.45 617.598L4167.25 741.598C4162.98 738.398 4155.52 733.998 4144.85 728.398C4134.45 722.532 4122.72 717.332 4109.65 712.798C4096.58 708.265 4084.05 705.998 4072.05 705.998C4057.92 705.998 4046.18 707.998 4036.85 711.998C4027.52 715.732 4022.85 722.265 4022.85 731.598C4022.85 737.998 4025.38 743.865 4030.45 749.198C4035.52 754.532 4044.05 759.998 4056.05 765.598C4068.32 771.198 4084.98 777.598 4106.05 784.798C4126.58 791.465 4145.38 799.732 4162.45 809.598C4179.52 819.465 4194.18 831.198 4206.45 844.798C4218.98 858.398 4228.72 873.998 4235.65 891.598C4242.58 909.198 4246.05 929.065 4246.05 951.198C4246.05 980.532 4239.92 1005.6 4227.65 1026.4C4215.65 1046.93 4199.52 1063.6 4179.25 1076.4C4158.98 1089.2 4136.32 1098.53 4111.25 1104.4C4086.45 1110.53 4061.25 1113.6 4035.65 1113.6C3996.45 1113.6 3961.52 1109.33 3930.85 1100.8C3900.45 1092.27 3875.78 1083.07 3856.85 1073.2C3838.18 1063.07 3826.72 1055.87 3822.45 1051.6L3898.05 922.398C3900.98 924.798 3907.25 928.665 3916.85 933.998C3926.72 939.332 3938.45 944.932 3952.05 950.798C3965.92 956.665 3980.18 961.732 3994.85 965.998C4009.52 969.998 4023.12 971.998 4035.65 971.998C4052.45 971.998 4064.85 969.598 4072.85 964.798C4080.85 959.998 4084.85 953.065 4084.85 943.998C4084.85 937.598 4082.32 931.598 4077.25 925.998C4072.45 920.398 4063.65 914.532 4050.85 908.398C4038.32 901.998 4020.45 894.665 3997.25 886.398C3974.85 878.132 3953.52 867.332 3933.25 853.998C3912.98 840.665 3896.45 823.332 3883.65 801.998C3870.85 780.665 3864.45 753.998 3864.45 721.998C3864.45 689.465 3873.52 661.598 3891.65 638.398C3909.78 615.198 3933.38 597.465 3962.45 585.198C3991.52 572.665 4022.32 566.398 4054.85 566.398Z" fill="white"/>
<defs>
<linearGradient id="paint0_linear_1247_277" x1="510.903" y1="1521.92" x2="510.905" y2="-3.66878e-05" gradientUnits="userSpaceOnUse">
<stop stop-color="#FFC400"/>
<stop offset="1" stop-color="#3F744B" stop-opacity="0.85"/>
</linearGradient>
<linearGradient id="paint1_linear_1247_277" x1="581.131" y1="1521.92" x2="598.745" y2="0.142941" gradientUnits="userSpaceOnUse">
<stop stop-color="#971D78"/>
<stop offset="0.209679" stop-color="#BC177D"/>
<stop offset="0.454087" stop-color="#D65050"/>
<stop offset="0.772393" stop-color="#DC6D20"/>
<stop offset="0.970816" stop-color="#CE7233"/>
</linearGradient>
<linearGradient id="paint2_linear_1247_277" x1="499.837" y1="338.914" x2="499.837" y2="1104.09" gradientUnits="userSpaceOnUse">
<stop stop-color="#3DC24B" stop-opacity="0.85"/>
<stop offset="1" stop-color="#3DC24B" stop-opacity="0.85"/>
</linearGradient>
</defs>
</svg>
