<svg width="2238" height="709" viewBox="0 0 2238 709" fill="none" xmlns="http://www.w3.org/2000/svg">
<path d="M796.512 472.078V296.196H811.559V333.312L807.546 331.64C811.113 319.825 818.135 310.351 828.612 303.218C839.312 295.862 851.684 292.184 865.727 292.184C877.542 292.184 888.465 294.859 898.496 300.209C908.528 305.559 916.553 313.138 922.571 322.946C928.813 332.532 931.934 343.789 931.934 356.718V472.078H916.887V358.39C916.887 347.69 914.546 338.55 909.865 330.971C905.184 323.169 898.831 317.15 890.806 312.915C883.004 308.679 874.198 306.562 864.39 306.562C853.244 306.562 843.659 309.237 835.634 314.587C827.832 319.714 821.813 326.736 817.577 335.652C813.565 344.346 811.559 354.155 811.559 365.077V472.078H796.512Z" fill="black"/>
<path d="M1068.46 476.09C1051.74 476.09 1036.7 472.078 1023.32 464.053C1009.95 456.028 999.359 445.105 991.557 431.284C983.755 417.24 979.854 401.524 979.854 384.137C979.854 366.526 983.755 350.811 991.557 336.99C999.359 323.169 1009.95 312.246 1023.32 304.221C1036.7 296.196 1051.74 292.184 1068.46 292.184C1085.41 292.184 1100.45 296.196 1113.6 304.221C1126.98 312.246 1137.57 323.169 1145.37 336.99C1153.17 350.811 1157.07 366.526 1157.07 384.137C1157.07 401.524 1153.17 417.24 1145.37 431.284C1137.57 445.105 1126.98 456.028 1113.6 464.053C1100.45 472.078 1085.41 476.09 1068.46 476.09ZM1068.46 461.712C1082.06 461.712 1094.32 458.368 1105.24 451.681C1116.17 444.77 1124.86 435.408 1131.33 423.593C1137.79 411.779 1141.02 398.626 1141.02 384.137C1141.02 369.424 1137.79 356.272 1131.33 344.681C1125.08 332.866 1116.5 323.615 1105.58 316.927C1094.66 310.017 1082.28 306.562 1068.46 306.562C1054.87 306.562 1042.49 310.017 1031.35 316.927C1020.42 323.615 1011.73 332.866 1005.27 344.681C999.025 356.272 995.904 369.424 995.904 384.137C995.904 398.626 999.136 411.779 1005.6 423.593C1012.07 435.408 1020.76 444.77 1031.68 451.681C1042.61 458.368 1054.87 461.712 1068.46 461.712Z" fill="black"/>
<path d="M1254.16 472.078L1183.27 296.196H1200.32L1265.53 459.037H1259.17L1324.71 296.196H1342.1L1270.21 472.078H1254.16Z" fill="black"/>
<path d="M1422.02 476.09C1411.32 476.09 1401.62 474.084 1392.93 470.071C1384.46 465.836 1377.66 460.04 1372.53 452.684C1367.41 445.105 1364.84 436.411 1364.84 426.603C1364.84 418.578 1366.63 410.887 1370.19 403.531C1373.98 395.951 1380 389.375 1388.25 383.802C1396.72 378.23 1407.98 374.329 1422.02 372.099L1495.58 359.727V374.106L1427.04 385.474C1409.65 388.372 1397.5 393.499 1390.59 400.856C1383.68 408.212 1380.22 416.571 1380.22 425.934C1380.22 437.08 1384.35 445.885 1392.6 452.349C1400.84 458.814 1411.1 462.046 1423.36 462.046C1436.96 462.046 1448.66 458.814 1458.47 452.349C1468.5 445.885 1476.3 437.414 1481.87 426.937C1487.45 416.237 1490.23 404.757 1490.23 392.496V350.031C1490.23 336.878 1485.66 326.401 1476.52 318.599C1467.61 310.574 1455.68 306.562 1440.75 306.562C1429.38 306.562 1418.9 309.348 1409.31 314.921C1399.73 320.494 1392.26 327.85 1386.91 336.99L1373.54 329.968C1376.88 323.281 1381.78 317.15 1388.25 311.577C1394.94 305.782 1402.74 301.1 1411.66 297.534C1420.57 293.967 1430.27 292.184 1440.75 292.184C1453.45 292.184 1464.6 294.636 1474.18 299.54C1483.99 304.444 1491.57 311.243 1496.92 319.937C1502.49 328.631 1505.28 338.662 1505.28 350.031V472.078H1490.23V433.624H1491.57C1488.67 440.981 1483.88 447.891 1477.19 454.356C1470.51 460.82 1462.48 466.059 1453.12 470.071C1443.76 474.084 1433.39 476.09 1422.02 476.09Z" fill="black"/>
<path d="M1659.65 476.127C1641.59 476.127 1624.87 473.118 1609.49 467.099C1594.33 461.08 1581.07 452.609 1569.7 441.686C1558.56 430.763 1549.86 418.057 1543.62 403.567C1537.38 388.855 1534.26 372.805 1534.26 355.417C1534.26 336.024 1537.82 318.079 1544.96 301.583C1552.09 285.087 1562.01 270.709 1574.72 258.448C1587.42 245.965 1602.14 236.268 1618.85 229.358C1635.8 222.447 1654.08 218.992 1673.69 218.992C1691.97 218.992 1708.69 222.002 1723.85 228.02C1739.23 234.039 1752.49 242.51 1763.64 253.433C1775.01 264.133 1783.7 276.839 1789.72 291.552C1795.96 306.041 1799.08 321.868 1799.08 339.033C1799.08 358.427 1795.52 376.483 1788.38 393.202C1781.25 409.698 1771.22 424.187 1758.29 436.671C1745.58 449.154 1730.76 458.851 1713.82 465.761C1697.1 472.672 1679.04 476.127 1659.65 476.127ZM1659.65 429.314C1671.69 429.314 1682.94 427.085 1693.42 422.627C1704.12 418.169 1713.48 411.927 1721.51 403.902C1729.53 395.877 1735.77 386.403 1740.23 375.48C1744.91 364.334 1747.25 352.297 1747.25 339.367C1747.25 324.655 1744.02 311.837 1737.56 300.914C1731.32 289.768 1722.62 281.186 1711.48 275.167C1700.55 268.926 1687.96 265.805 1673.69 265.805C1661.65 265.805 1650.29 268.034 1639.59 272.492C1629.11 276.951 1619.86 283.192 1611.83 291.217C1603.81 299.019 1597.45 308.382 1592.77 319.305C1588.32 330.228 1586.09 342.265 1586.09 355.417C1586.09 369.907 1589.21 382.725 1595.45 393.871C1601.91 405.016 1610.61 413.71 1621.53 419.952C1632.68 426.194 1645.38 429.314 1659.65 429.314Z" fill="black"/>
<path d="M1818.76 472.114L1853.53 223.005H1945.48C1961.53 223.005 1975.58 225.903 1987.62 231.698C1999.65 237.271 2009.02 245.631 2015.7 256.777C2022.61 267.922 2026.07 281.743 2026.07 298.239C2026.07 314.735 2022.17 329.336 2014.37 342.042C2006.56 354.526 1995.53 364.334 1981.26 371.467C1967 378.378 1950.17 381.833 1930.77 381.833H1883.29L1870.58 472.114H1818.76ZM1889.64 336.692H1934.12C1941.92 336.692 1948.72 335.02 1954.51 331.677C1960.53 328.333 1965.21 323.763 1968.56 317.967C1972.12 312.171 1973.91 305.595 1973.91 298.239C1973.91 289.1 1970.9 281.855 1964.88 276.505C1959.08 270.932 1951.17 268.145 1941.14 268.145H1899.01L1889.64 336.692Z" fill="black"/>
<path d="M2136.89 476.127C2119.5 476.127 2103.67 473.229 2089.4 467.433C2075.36 461.637 2063.55 453.389 2053.96 442.689C2044.38 431.989 2037.8 419.506 2034.23 405.239L2078.04 388.186C2082.49 401.338 2089.96 411.815 2100.44 419.617C2110.92 427.197 2122.73 430.986 2135.88 430.986C2143.46 430.986 2150.04 429.76 2155.61 427.308C2161.41 424.633 2165.87 421.066 2168.99 416.608C2172.33 412.15 2174 407.134 2174 401.561C2174 396.211 2172.33 391.641 2168.99 387.852C2165.64 384.062 2160.18 380.941 2152.6 378.489L2108.46 363.442C2090.18 357.201 2076.59 348.618 2067.67 337.695C2058.98 326.55 2054.63 312.952 2054.63 296.902C2054.63 282.189 2058.53 269.037 2066.33 257.445C2074.36 245.631 2085.06 236.268 2098.43 229.358C2112.03 222.447 2127.3 218.992 2144.24 218.992C2160.07 218.992 2174.34 221.667 2187.04 227.017C2199.97 232.144 2210.78 239.501 2219.48 249.086C2228.17 258.671 2234.19 270.04 2237.53 283.192L2194.06 300.245C2190.5 288.877 2184.14 280.071 2175 273.83C2166.09 267.365 2155.39 264.133 2142.9 264.133C2135.55 264.133 2129.08 265.359 2123.51 267.811C2118.16 270.04 2113.93 273.272 2110.8 277.508C2107.91 281.743 2106.46 286.759 2106.46 292.555C2106.46 298.574 2108.24 303.589 2111.81 307.602C2115.37 311.614 2120.95 314.958 2128.53 317.633L2171.66 332.68C2189.94 338.922 2203.54 347.392 2212.45 358.092C2221.59 368.792 2226.16 382.056 2226.16 397.883C2226.16 412.596 2222.04 425.859 2213.79 437.674C2205.77 449.488 2194.96 458.851 2181.36 465.761C2167.98 472.672 2153.16 476.127 2136.89 476.127Z" fill="black"/>
<path d="M531.067 0H177.022C79.2556 0 0 79.2556 0 177.022V531.067C0 628.834 79.2556 708.089 177.022 708.089H531.067C628.834 708.089 708.089 628.834 708.089 531.067V177.022C708.089 79.2556 628.834 0 531.067 0Z" fill="#1A1A1A"/>
<path d="M452.379 137.68H550.724L491.717 570.401H393.371L452.379 137.68Z" fill="url(#paint0_linear_1259_330)"/>
<path d="M196.687 137.68H295.033L236.025 570.401H137.68L196.687 137.68Z" fill="url(#paint1_linear_1259_330)"/>
<path d="M196.707 137.68H295.053L491.744 570.401H393.399L196.707 137.68Z" fill="url(#paint2_linear_1259_330)" fill-opacity="0.2"/>
<defs>
<linearGradient id="paint0_linear_1259_330" x1="472.048" y1="570.401" x2="472.049" y2="137.68" gradientUnits="userSpaceOnUse">
<stop stop-color="#009DDC"/>
<stop offset="1" stop-color="#3C9D51" stop-opacity="0.85"/>
</linearGradient>
<linearGradient id="paint1_linear_1259_330" x1="216.356" y1="570.401" x2="216.357" y2="137.68" gradientUnits="userSpaceOnUse">
<stop stop-color="#009DDC"/>
<stop offset="1" stop-color="#3C9D51" stop-opacity="0.85"/>
</linearGradient>
<linearGradient id="paint2_linear_1259_330" x1="344.226" y1="570.401" x2="344.226" y2="137.68" gradientUnits="userSpaceOnUse">
<stop stop-color="#009DDC"/>
<stop offset="1" stop-color="#3C9D51" stop-opacity="0.85"/>
</linearGradient>
</defs>
</svg>
