<svg width="5280" height="2115" viewBox="0 0 5280 2115" fill="none" xmlns="http://www.w3.org/2000/svg">
<path d="M234.781 471.071H455.465C551.005 471.071 624.396 555.689 610.888 650.269L426.084 1944.19C412.093 2042.15 328.2 2114.91 229.248 2114.91C108.252 2114.91 15.3057 2007.75 32.4134 1887.97L234.781 471.071Z" fill="url(#paint0_linear_1256_286)"/>
<path d="M989.875 164.231C1006.27 69.3268 1088.6 0 1184.91 0C1307.68 0 1400.84 110.624 1379.94 231.607L1154.91 1534.39H956.275C850.199 1534.39 769.715 1438.82 787.77 1334.29L989.875 164.231Z" fill="url(#paint1_linear_1256_286)"/>
<path d="M234.531 470.969H544.36C600.571 470.969 651.86 503.023 676.493 553.548L1154.65 1534.29H844.82C788.61 1534.29 737.321 1502.24 712.688 1451.71L234.531 470.969Z" fill="url(#paint2_linear_1256_286)"/>
<mask id="path-3-outside-1_1256_286" maskUnits="userSpaceOnUse" x="1330.03" y="724.43" width="3950" height="812" fill="black">
<rect fill="white" x="1330.03" y="724.43" width="3950" height="812"/>
<path d="M1615.3 1531.9C1529.54 1531.9 1460.96 1506.03 1409.57 1454.28C1358.54 1402.16 1333.03 1333.23 1333.03 1247.46C1333.03 1154.09 1359.63 1081.17 1412.83 1028.7C1466.39 976.226 1538.4 949.989 1628.87 949.989C1715.73 949.989 1783.4 975.502 1831.89 1026.53C1880.38 1077.55 1904.63 1148.3 1904.63 1238.77C1904.63 1327.44 1878.39 1398.55 1825.92 1452.1C1773.81 1505.3 1703.6 1531.9 1615.3 1531.9ZM1621.27 1050.41C1572.06 1050.41 1533.15 1067.6 1504.56 1101.98C1475.98 1136.36 1461.68 1183.77 1461.68 1244.2C1461.68 1302.47 1476.16 1348.42 1505.11 1382.08C1534.06 1415.37 1572.78 1432.02 1621.27 1432.02C1670.85 1432.02 1708.85 1415.55 1735.27 1382.62C1762.05 1349.69 1775.44 1302.83 1775.44 1242.03C1775.44 1180.87 1762.05 1133.65 1735.27 1100.35C1708.85 1067.06 1670.85 1050.41 1621.27 1050.41Z"/>
<path d="M2512.05 963.017L2297.09 1518.87H2160.84L1956.2 963.017H2092.99L2216.21 1351.68C2225.62 1380.27 2231.41 1405.24 2233.58 1426.59H2235.21C2238.47 1399.81 2243.54 1375.57 2250.41 1353.85L2379.6 963.017H2512.05Z"/>
<path d="M3006.03 1518.87H2883.89V1432.02H2881.72C2843.36 1498.61 2787.09 1531.9 2712.9 1531.9C2658.26 1531.9 2615.37 1517.06 2584.25 1487.39C2553.49 1457.71 2538.11 1418.45 2538.11 1369.59C2538.11 1264.65 2598.54 1203.49 2719.41 1186.12L2884.43 1162.78C2884.43 1083.52 2846.8 1043.9 2771.53 1043.9C2705.3 1043.9 2645.59 1066.7 2592.39 1112.29V1002.1C2651.02 967.359 2718.69 949.989 2795.41 949.989C2935.82 949.989 3006.03 1019.11 3006.03 1157.35V1518.87ZM2884.43 1245.83L2767.73 1262.11C2731.54 1266.82 2704.22 1275.69 2685.76 1288.71C2667.66 1301.38 2658.62 1323.82 2658.62 1356.02C2658.62 1379.55 2666.94 1398.91 2683.59 1414.11C2700.6 1428.94 2723.21 1436.36 2751.44 1436.36C2789.8 1436.36 2821.47 1422.97 2846.44 1396.19C2871.77 1369.05 2884.43 1335.03 2884.43 1294.14V1245.83Z"/>
<path d="M3895.18 1127.49C3895.18 1205.66 3878.35 1275.69 3844.7 1337.57C3811.04 1399.09 3764 1447.04 3703.56 1481.42C3643.13 1515.43 3575.45 1532.44 3500.54 1532.44C3427.44 1532.44 3360.86 1515.98 3300.78 1483.05C3241.07 1449.75 3194.57 1403.25 3161.28 1343.54C3127.98 1283.47 3111.34 1215.61 3111.34 1139.98C3111.34 1060.73 3128.16 989.434 3161.82 926.105C3195.47 862.775 3242.7 813.92 3303.5 779.541C3364.29 744.8 3433.41 727.43 3510.86 727.43C3585.41 727.43 3651.99 744.076 3710.62 777.37C3769.61 810.301 3815.02 857.527 3846.87 919.048C3879.08 980.206 3895.18 1049.69 3895.18 1127.49ZM3646.57 1134.01C3646.57 1069.95 3634.26 1019.47 3609.65 982.559C3585.04 945.646 3551.39 927.19 3508.69 927.19C3462 927.19 3425.63 944.923 3399.58 980.387C3373.52 1015.85 3360.49 1065.97 3360.49 1130.75C3360.49 1194.08 3373.34 1243.48 3399.04 1278.94C3425.09 1314.41 3460.37 1332.14 3504.89 1332.14C3532.03 1332.14 3556.46 1324.18 3578.17 1308.26C3599.88 1292.33 3616.71 1269.53 3628.65 1239.86C3640.59 1210.18 3646.57 1174.9 3646.57 1134.01Z"/>
<path d="M4642.11 997.215C4642.11 1050.41 4628.54 1097.64 4601.4 1138.89C4574.62 1180.15 4536.26 1212.17 4486.32 1234.97C4436.38 1257.41 4378.3 1268.63 4312.07 1268.63H4240.42V1518.87H4005.92V740.458H4325.1C4434.75 740.458 4514.91 761.266 4565.57 802.883C4616.6 844.499 4642.11 909.277 4642.11 997.215ZM4394.04 1005.36C4394.04 973.512 4384.81 949.446 4366.36 933.161C4347.9 916.877 4320.76 908.734 4284.93 908.734H4240.42V1100.9H4293.07C4360.38 1100.9 4394.04 1069.05 4394.04 1005.36Z"/>
<path d="M5276.14 1283.29C5276.14 1335.03 5262.2 1380.09 5234.34 1418.45C5206.83 1456.81 5168.11 1485.4 5118.17 1504.22C5068.23 1523.03 5008.16 1532.44 4937.95 1532.44C4856.53 1532.44 4781.98 1518.69 4714.31 1491.19V1277.86C4746.88 1301.74 4782.89 1321.1 4822.33 1335.94C4861.78 1350.41 4898.51 1357.65 4932.53 1357.65C4958.22 1357.65 4978.12 1353.13 4992.24 1344.08C5006.35 1334.67 5013.41 1321.1 5013.41 1303.37C5013.41 1290.7 5009.79 1279.67 5002.55 1270.26C4995.67 1260.49 4985 1251.44 4970.52 1243.12C4956.41 1234.79 4929.99 1223.39 4891.27 1208.92C4766.06 1160.79 4703.45 1082.98 4703.45 975.502C4703.45 900.23 4732.04 840.157 4789.22 795.283C4846.4 750.048 4923.12 727.43 5019.38 727.43C5046.52 727.43 5071.49 728.515 5094.29 730.687C5117.09 732.858 5137.71 735.572 5156.17 738.829C5174.99 742.086 5201.23 748.238 5234.88 757.285V955.417C5169.38 919.591 5104.96 901.677 5041.63 901.677C5015.58 901.677 4994.59 906.563 4978.67 916.334C4962.74 926.105 4954.78 939.494 4954.78 956.503C4954.78 972.788 4961.11 986.358 4973.78 997.215C4986.81 1007.71 5013.77 1021.46 5054.66 1038.47C5135.36 1071.04 5192.36 1106.69 5225.65 1145.41C5259.31 1184.13 5276.14 1230.09 5276.14 1283.29Z"/>
</mask>
<path d="M1615.3 1531.9C1529.54 1531.9 1460.96 1506.03 1409.57 1454.28C1358.54 1402.16 1333.03 1333.23 1333.03 1247.46C1333.03 1154.09 1359.63 1081.17 1412.83 1028.7C1466.39 976.226 1538.4 949.989 1628.87 949.989C1715.73 949.989 1783.4 975.502 1831.89 1026.53C1880.38 1077.55 1904.63 1148.3 1904.63 1238.77C1904.63 1327.44 1878.39 1398.55 1825.92 1452.1C1773.81 1505.3 1703.6 1531.9 1615.3 1531.9ZM1621.27 1050.41C1572.06 1050.41 1533.15 1067.6 1504.56 1101.98C1475.98 1136.36 1461.68 1183.77 1461.68 1244.2C1461.68 1302.47 1476.16 1348.42 1505.11 1382.08C1534.06 1415.37 1572.78 1432.02 1621.27 1432.02C1670.85 1432.02 1708.85 1415.55 1735.27 1382.62C1762.05 1349.69 1775.44 1302.83 1775.44 1242.03C1775.44 1180.87 1762.05 1133.65 1735.27 1100.35C1708.85 1067.06 1670.85 1050.41 1621.27 1050.41Z" fill="url(#paint3_linear_1256_286)"/>
<path d="M2512.05 963.017L2297.09 1518.87H2160.84L1956.2 963.017H2092.99L2216.21 1351.68C2225.62 1380.27 2231.41 1405.24 2233.58 1426.59H2235.21C2238.47 1399.81 2243.54 1375.57 2250.41 1353.85L2379.6 963.017H2512.05Z" fill="url(#paint4_linear_1256_286)"/>
<path d="M3006.03 1518.87H2883.89V1432.02H2881.72C2843.36 1498.61 2787.09 1531.9 2712.9 1531.9C2658.26 1531.9 2615.37 1517.06 2584.25 1487.39C2553.49 1457.71 2538.11 1418.45 2538.11 1369.59C2538.11 1264.65 2598.54 1203.49 2719.41 1186.12L2884.43 1162.78C2884.43 1083.52 2846.8 1043.9 2771.53 1043.9C2705.3 1043.9 2645.59 1066.7 2592.39 1112.29V1002.1C2651.02 967.359 2718.69 949.989 2795.41 949.989C2935.82 949.989 3006.03 1019.11 3006.03 1157.35V1518.87ZM2884.43 1245.83L2767.73 1262.11C2731.54 1266.82 2704.22 1275.69 2685.76 1288.71C2667.66 1301.38 2658.62 1323.82 2658.62 1356.02C2658.62 1379.55 2666.94 1398.91 2683.59 1414.11C2700.6 1428.94 2723.21 1436.36 2751.44 1436.36C2789.8 1436.36 2821.47 1422.97 2846.44 1396.19C2871.77 1369.05 2884.43 1335.03 2884.43 1294.14V1245.83Z" fill="url(#paint5_linear_1256_286)"/>
<path d="M3895.18 1127.49C3895.18 1205.66 3878.35 1275.69 3844.7 1337.57C3811.04 1399.09 3764 1447.04 3703.56 1481.42C3643.13 1515.43 3575.45 1532.44 3500.54 1532.44C3427.44 1532.44 3360.86 1515.98 3300.78 1483.05C3241.07 1449.75 3194.57 1403.25 3161.28 1343.54C3127.98 1283.47 3111.34 1215.61 3111.34 1139.98C3111.34 1060.73 3128.16 989.434 3161.82 926.105C3195.47 862.775 3242.7 813.92 3303.5 779.541C3364.29 744.8 3433.41 727.43 3510.86 727.43C3585.41 727.43 3651.99 744.076 3710.62 777.37C3769.61 810.301 3815.02 857.527 3846.87 919.048C3879.08 980.206 3895.18 1049.69 3895.18 1127.49ZM3646.57 1134.01C3646.57 1069.95 3634.26 1019.47 3609.65 982.559C3585.04 945.646 3551.39 927.19 3508.69 927.19C3462 927.19 3425.63 944.923 3399.58 980.387C3373.52 1015.85 3360.49 1065.97 3360.49 1130.75C3360.49 1194.08 3373.34 1243.48 3399.04 1278.94C3425.09 1314.41 3460.37 1332.14 3504.89 1332.14C3532.03 1332.14 3556.46 1324.18 3578.17 1308.26C3599.88 1292.33 3616.71 1269.53 3628.65 1239.86C3640.59 1210.18 3646.57 1174.9 3646.57 1134.01Z" fill="url(#paint6_linear_1256_286)"/>
<path d="M4642.11 997.215C4642.11 1050.41 4628.54 1097.64 4601.4 1138.89C4574.62 1180.15 4536.26 1212.17 4486.32 1234.97C4436.38 1257.41 4378.3 1268.63 4312.07 1268.63H4240.42V1518.87H4005.92V740.458H4325.1C4434.75 740.458 4514.91 761.266 4565.57 802.883C4616.6 844.499 4642.11 909.277 4642.11 997.215ZM4394.04 1005.36C4394.04 973.512 4384.81 949.446 4366.36 933.161C4347.9 916.877 4320.76 908.734 4284.93 908.734H4240.42V1100.9H4293.07C4360.38 1100.9 4394.04 1069.05 4394.04 1005.36Z" fill="url(#paint7_linear_1256_286)"/>
<path d="M5276.14 1283.29C5276.14 1335.03 5262.2 1380.09 5234.34 1418.45C5206.83 1456.81 5168.11 1485.4 5118.17 1504.22C5068.23 1523.03 5008.16 1532.44 4937.95 1532.44C4856.53 1532.44 4781.98 1518.69 4714.31 1491.19V1277.86C4746.88 1301.74 4782.89 1321.1 4822.33 1335.94C4861.78 1350.41 4898.51 1357.65 4932.53 1357.65C4958.22 1357.65 4978.12 1353.13 4992.24 1344.08C5006.35 1334.67 5013.41 1321.1 5013.41 1303.37C5013.41 1290.7 5009.79 1279.67 5002.55 1270.26C4995.67 1260.49 4985 1251.44 4970.52 1243.12C4956.41 1234.79 4929.99 1223.39 4891.27 1208.92C4766.06 1160.79 4703.45 1082.98 4703.45 975.502C4703.45 900.23 4732.04 840.157 4789.22 795.283C4846.4 750.048 4923.12 727.43 5019.38 727.43C5046.52 727.43 5071.49 728.515 5094.29 730.687C5117.09 732.858 5137.71 735.572 5156.17 738.829C5174.99 742.086 5201.23 748.238 5234.88 757.285V955.417C5169.38 919.591 5104.96 901.677 5041.63 901.677C5015.58 901.677 4994.59 906.563 4978.67 916.334C4962.74 926.105 4954.78 939.494 4954.78 956.503C4954.78 972.788 4961.11 986.358 4973.78 997.215C4986.81 1007.71 5013.77 1021.46 5054.66 1038.47C5135.36 1071.04 5192.36 1106.69 5225.65 1145.41C5259.31 1184.13 5276.14 1230.09 5276.14 1283.29Z" fill="url(#paint8_linear_1256_286)"/>
<path d="M1615.3 1531.9C1529.54 1531.9 1460.96 1506.03 1409.57 1454.28C1358.54 1402.16 1333.03 1333.23 1333.03 1247.46C1333.03 1154.09 1359.63 1081.17 1412.83 1028.7C1466.39 976.226 1538.4 949.989 1628.87 949.989C1715.73 949.989 1783.4 975.502 1831.89 1026.53C1880.38 1077.55 1904.63 1148.3 1904.63 1238.77C1904.63 1327.44 1878.39 1398.55 1825.92 1452.1C1773.81 1505.3 1703.6 1531.9 1615.3 1531.9ZM1621.27 1050.41C1572.06 1050.41 1533.15 1067.6 1504.56 1101.98C1475.98 1136.36 1461.68 1183.77 1461.68 1244.2C1461.68 1302.47 1476.16 1348.42 1505.11 1382.08C1534.06 1415.37 1572.78 1432.02 1621.27 1432.02C1670.85 1432.02 1708.85 1415.55 1735.27 1382.62C1762.05 1349.69 1775.44 1302.83 1775.44 1242.03C1775.44 1180.87 1762.05 1133.65 1735.27 1100.35C1708.85 1067.06 1670.85 1050.41 1621.27 1050.41Z" stroke="white" stroke-width="6" mask="url(#path-3-outside-1_1256_286)"/>
<path d="M2512.05 963.017L2297.09 1518.87H2160.84L1956.2 963.017H2092.99L2216.21 1351.68C2225.62 1380.27 2231.41 1405.24 2233.58 1426.59H2235.21C2238.47 1399.81 2243.54 1375.57 2250.41 1353.85L2379.6 963.017H2512.05Z" stroke="white" stroke-width="6" mask="url(#path-3-outside-1_1256_286)"/>
<path d="M3006.03 1518.87H2883.89V1432.02H2881.72C2843.36 1498.61 2787.09 1531.9 2712.9 1531.9C2658.26 1531.9 2615.37 1517.06 2584.25 1487.39C2553.49 1457.71 2538.11 1418.45 2538.11 1369.59C2538.11 1264.65 2598.54 1203.49 2719.41 1186.12L2884.43 1162.78C2884.43 1083.52 2846.8 1043.9 2771.53 1043.9C2705.3 1043.9 2645.59 1066.7 2592.39 1112.29V1002.1C2651.02 967.359 2718.69 949.989 2795.41 949.989C2935.82 949.989 3006.03 1019.11 3006.03 1157.35V1518.87ZM2884.43 1245.83L2767.73 1262.11C2731.54 1266.82 2704.22 1275.69 2685.76 1288.71C2667.66 1301.38 2658.62 1323.82 2658.62 1356.02C2658.62 1379.55 2666.94 1398.91 2683.59 1414.11C2700.6 1428.94 2723.21 1436.36 2751.44 1436.36C2789.8 1436.36 2821.47 1422.97 2846.44 1396.19C2871.77 1369.05 2884.43 1335.03 2884.43 1294.14V1245.83Z" stroke="white" stroke-width="6" mask="url(#path-3-outside-1_1256_286)"/>
<path d="M3895.18 1127.49C3895.18 1205.66 3878.35 1275.69 3844.7 1337.57C3811.04 1399.09 3764 1447.04 3703.56 1481.42C3643.13 1515.43 3575.45 1532.44 3500.54 1532.44C3427.44 1532.44 3360.86 1515.98 3300.78 1483.05C3241.07 1449.75 3194.57 1403.25 3161.28 1343.54C3127.98 1283.47 3111.34 1215.61 3111.34 1139.98C3111.34 1060.73 3128.16 989.434 3161.82 926.105C3195.47 862.775 3242.7 813.92 3303.5 779.541C3364.29 744.8 3433.41 727.43 3510.86 727.43C3585.41 727.43 3651.99 744.076 3710.62 777.37C3769.61 810.301 3815.02 857.527 3846.87 919.048C3879.08 980.206 3895.18 1049.69 3895.18 1127.49ZM3646.57 1134.01C3646.57 1069.95 3634.26 1019.47 3609.65 982.559C3585.04 945.646 3551.39 927.19 3508.69 927.19C3462 927.19 3425.63 944.923 3399.58 980.387C3373.52 1015.85 3360.49 1065.97 3360.49 1130.75C3360.49 1194.08 3373.34 1243.48 3399.04 1278.94C3425.09 1314.41 3460.37 1332.14 3504.89 1332.14C3532.03 1332.14 3556.46 1324.18 3578.17 1308.26C3599.88 1292.33 3616.71 1269.53 3628.65 1239.86C3640.59 1210.18 3646.57 1174.9 3646.57 1134.01Z" stroke="white" stroke-width="6" mask="url(#path-3-outside-1_1256_286)"/>
<path d="M4642.11 997.215C4642.11 1050.41 4628.54 1097.64 4601.4 1138.89C4574.62 1180.15 4536.26 1212.17 4486.32 1234.97C4436.38 1257.41 4378.3 1268.63 4312.07 1268.63H4240.42V1518.87H4005.92V740.458H4325.1C4434.75 740.458 4514.91 761.266 4565.57 802.883C4616.6 844.499 4642.11 909.277 4642.11 997.215ZM4394.04 1005.36C4394.04 973.512 4384.81 949.446 4366.36 933.161C4347.9 916.877 4320.76 908.734 4284.93 908.734H4240.42V1100.9H4293.07C4360.38 1100.9 4394.04 1069.05 4394.04 1005.36Z" stroke="white" stroke-width="6" mask="url(#path-3-outside-1_1256_286)"/>
<path d="M5276.14 1283.29C5276.14 1335.03 5262.2 1380.09 5234.34 1418.45C5206.83 1456.81 5168.11 1485.4 5118.17 1504.22C5068.23 1523.03 5008.16 1532.44 4937.95 1532.44C4856.53 1532.44 4781.98 1518.69 4714.31 1491.19V1277.86C4746.88 1301.74 4782.89 1321.1 4822.33 1335.94C4861.78 1350.41 4898.51 1357.65 4932.53 1357.65C4958.22 1357.65 4978.12 1353.13 4992.24 1344.08C5006.35 1334.67 5013.41 1321.1 5013.41 1303.37C5013.41 1290.7 5009.79 1279.67 5002.55 1270.26C4995.67 1260.49 4985 1251.44 4970.52 1243.12C4956.41 1234.79 4929.99 1223.39 4891.27 1208.92C4766.06 1160.79 4703.45 1082.98 4703.45 975.502C4703.45 900.23 4732.04 840.157 4789.22 795.283C4846.4 750.048 4923.12 727.43 5019.38 727.43C5046.52 727.43 5071.49 728.515 5094.29 730.687C5117.09 732.858 5137.71 735.572 5156.17 738.829C5174.99 742.086 5201.23 748.238 5234.88 757.285V955.417C5169.38 919.591 5104.96 901.677 5041.63 901.677C5015.58 901.677 4994.59 906.563 4978.67 916.334C4962.74 926.105 4954.78 939.494 4954.78 956.503C4954.78 972.788 4961.11 986.358 4973.78 997.215C4986.81 1007.71 5013.77 1021.46 5054.66 1038.47C5135.36 1071.04 5192.36 1106.69 5225.65 1145.41C5259.31 1184.13 5276.14 1230.09 5276.14 1283.29Z" stroke="white" stroke-width="6" mask="url(#path-3-outside-1_1256_286)"/>
<defs>
<linearGradient id="paint0_linear_1256_286" x1="709.972" y1="0" x2="709.972" y2="2114.91" gradientUnits="userSpaceOnUse">
<stop stop-color="#2CBE00"/>
<stop offset="1" stop-color="#145800"/>
</linearGradient>
<linearGradient id="paint1_linear_1256_286" x1="709.972" y1="0" x2="709.972" y2="2114.91" gradientUnits="userSpaceOnUse">
<stop stop-color="#2CBE00"/>
<stop offset="1" stop-color="#145800"/>
</linearGradient>
<linearGradient id="paint2_linear_1256_286" x1="694.59" y1="470.969" x2="694.59" y2="1534.29" gradientUnits="userSpaceOnUse">
<stop stop-color="#2CBE00"/>
<stop offset="1" stop-color="#145800"/>
</linearGradient>
<linearGradient id="paint3_linear_1256_286" x1="2816.8" y1="726.778" x2="2830" y2="1532.77" gradientUnits="userSpaceOnUse">
<stop stop-color="#165F00"/>
<stop offset="1" stop-color="#26A201"/>
</linearGradient>
<linearGradient id="paint4_linear_1256_286" x1="2816.8" y1="726.778" x2="2830" y2="1532.77" gradientUnits="userSpaceOnUse">
<stop stop-color="#165F00"/>
<stop offset="1" stop-color="#26A201"/>
</linearGradient>
<linearGradient id="paint5_linear_1256_286" x1="2816.8" y1="726.778" x2="2830" y2="1532.77" gradientUnits="userSpaceOnUse">
<stop stop-color="#165F00"/>
<stop offset="1" stop-color="#26A201"/>
</linearGradient>
<linearGradient id="paint6_linear_1256_286" x1="2816.8" y1="726.778" x2="2830" y2="1532.77" gradientUnits="userSpaceOnUse">
<stop stop-color="#165F00"/>
<stop offset="1" stop-color="#26A201"/>
</linearGradient>
<linearGradient id="paint7_linear_1256_286" x1="2816.8" y1="726.778" x2="2830" y2="1532.77" gradientUnits="userSpaceOnUse">
<stop stop-color="#165F00"/>
<stop offset="1" stop-color="#26A201"/>
</linearGradient>
<linearGradient id="paint8_linear_1256_286" x1="2816.8" y1="726.778" x2="2830" y2="1532.77" gradientUnits="userSpaceOnUse">
<stop stop-color="#165F00"/>
<stop offset="1" stop-color="#26A201"/>
</linearGradient>
</defs>
</svg>
