<svg width="3911" height="1873" viewBox="0 0 3911 1873" fill="none" xmlns="http://www.w3.org/2000/svg">
<g filter="url(#filter0_d_1254_283)">
<rect x="103.602" y="99.6016" width="3703" height="1665" rx="162" fill="#D9D9D9"/>
</g>
<path d="M968.604 512.09C1063.23 512.09 1135.92 595.899 1122.54 689.576L996.73 1570.46C986.768 1640.21 927.031 1692.02 856.571 1692.02C770.413 1692.02 704.229 1615.71 716.411 1530.42L861.854 512.09H968.604ZM1544.27 173.102C1631.69 173.102 1698.02 251.87 1683.14 338.014L1521.42 1274.27H1436.69C1331.54 1274.27 1251.76 1179.53 1269.66 1075.92L1405.4 290.04C1417.08 222.465 1475.7 173.102 1544.27 173.102Z" fill="url(#paint0_linear_1254_283)" stroke="url(#paint1_linear_1254_283)" stroke-width="3"/>
<path d="M1057.57 512.016C1113.21 512.016 1163.97 543.743 1188.36 593.753L1520.1 1274.2H1325.31C1269.67 1274.2 1218.9 1242.47 1194.52 1192.46L862.775 512.016H1057.57Z" fill="url(#paint2_linear_1254_283)" stroke="url(#paint3_linear_1254_283)" stroke-width="3"/>
<path d="M1950.1 695.102C2003.98 695.102 2052.16 707.135 2094.59 731.234H2094.59C2137.3 755.078 2170.18 789.276 2193.23 833.793C2216.53 878.045 2228.16 928.29 2228.16 984.492C2228.16 1040.96 2216 1091.61 2191.65 1136.38L2191.65 1136.38C2167.3 1180.9 2133.25 1215.6 2089.51 1240.48L2089.51 1240.49C2045.78 1265.1 1996.82 1277.4 1942.68 1277.4C1889.84 1277.4 1841.67 1265.49 1798.21 1241.67L1798.2 1241.66C1754.99 1217.57 1721.32 1183.9 1697.23 1140.69L1697.23 1140.69C1673.13 1097.21 1661.1 1048.13 1661.1 993.477C1661.1 936.226 1673.26 884.678 1697.61 838.866C1721.95 793.05 1756.14 757.683 1800.14 732.799L1802.21 731.63C1845.7 707.267 1895.01 695.102 1950.1 695.102ZM2536.04 704.477C2615.08 704.477 2673.18 719.464 2710.03 749.736L2710.9 750.45C2747.5 780.795 2765.66 827.669 2765.66 890.742C2765.66 929.293 2755.82 963.568 2736.12 993.52C2716.68 1023.47 2688.84 1046.69 2652.68 1063.2L2652.67 1063.2C2616.5 1079.45 2574.49 1087.55 2526.66 1087.55H2476.6V1267.63H2304.85V704.477H2536.04ZM1948.54 841.852C1915.39 841.852 1889.68 854.411 1871.23 879.521C1852.74 904.688 1843.4 940.397 1843.4 986.836C1843.4 1032.22 1852.61 1067.42 1870.84 1092.59L1871.71 1093.76C1890.09 1118.11 1914.74 1130.26 1945.8 1130.26C1965.02 1130.26 1982.29 1124.63 1997.65 1113.36C2013.01 1102.1 2024.97 1085.94 2033.48 1064.79C2041.98 1043.66 2046.26 1018.47 2046.26 989.18C2046.26 943.257 2037.43 907.257 2019.95 881.027C2002.5 854.863 1978.74 841.852 1948.54 841.852ZM2476.6 963.852H2512.99C2537 963.852 2554.73 958.171 2566.45 947.074C2578.16 935.993 2584.15 919.265 2584.15 896.602C2584.15 873.981 2577.6 857.129 2564.73 845.773C2551.83 834.386 2532.71 828.57 2507.13 828.57H2476.6V963.852ZM3192.23 863.194L3190.01 861.98C3143.05 836.298 3096.94 823.492 3051.66 823.492C3033.09 823.492 3018.28 826.977 3007.14 833.817C2996.07 840.608 2990.66 849.786 2990.66 861.445C2990.66 872.706 2995.01 882.054 3003.79 889.587C3012.99 896.985 3032.19 906.806 3061.62 919.045C3119.76 942.514 3161.03 968.271 3185.22 996.398C3209.68 1024.55 3221.91 1057.97 3221.91 1096.6C3221.91 1134.13 3211.81 1166.86 3191.55 1194.75L3191.55 1194.75C3171.56 1222.62 3143.45 1243.36 3107.27 1256.99C3071.12 1270.61 3027.7 1277.4 2977.05 1277.4C2918.29 1277.4 2864.45 1267.47 2815.55 1247.6L2814.62 1247.22V1089.74L2817 1091.49C2840.33 1108.59 2866.12 1122.46 2894.38 1133.09H2894.38C2922.63 1143.45 2948.88 1148.62 2973.15 1148.62C2991.49 1148.62 3005.48 1145.38 3015.29 1139.1C3025 1132.62 3029.85 1123.34 3029.85 1111.05C3029.85 1102.25 3027.34 1094.63 3022.35 1088.14L3022.33 1088.12L3022.31 1088.09C3017.53 1081.29 3010.04 1074.92 2999.74 1069L2999.74 1068.99L2999.73 1068.99C2989.7 1063.07 2970.8 1054.91 2942.94 1044.49L2942.92 1044.49C2897.71 1027.11 2863.66 1004.32 2840.92 976.058C2818.17 947.775 2806.8 914.103 2806.8 875.117C2806.8 820.511 2827.57 776.84 2869.09 744.253L2870.07 743.487C2911.45 711.179 2966.69 695.102 3035.65 695.102C3055.22 695.102 3073.24 695.884 3089.7 697.452C3106.13 699.018 3121.02 700.975 3134.35 703.327H3134.35C3147.95 705.683 3166.89 710.124 3191.12 716.638L3192.23 716.936V863.194Z" fill="url(#paint4_linear_1254_283)" stroke="white" stroke-width="3"/>
<defs>
<filter id="filter0_d_1254_283" x="0.00156403" y="0.00156403" width="3910.2" height="1872.2" filterUnits="userSpaceOnUse" color-interpolation-filters="sRGB">
<feFlood flood-opacity="0" result="BackgroundImageFix"/>
<feColorMatrix in="SourceAlpha" type="matrix" values="0 0 0 0 0 0 0 0 0 0 0 0 0 0 0 0 0 0 127 0" result="hardAlpha"/>
<feMorphology radius="25" operator="dilate" in="SourceAlpha" result="effect1_dropShadow_1254_283"/>
<feOffset dy="4"/>
<feGaussianBlur stdDeviation="39.3"/>
<feComposite in2="hardAlpha" operator="out"/>
<feColorMatrix type="matrix" values="0 0 0 0 0 0 0 0 0 0 0 0 0 0 0 0 0 0 0.25 0"/>
<feBlend mode="normal" in2="BackgroundImageFix" result="effect1_dropShadow_1254_283"/>
<feBlend mode="normal" in="SourceGraphic" in2="effect1_dropShadow_1254_283" result="shape"/>
</filter>
<linearGradient id="paint0_linear_1254_283" x1="1202.5" y1="171.602" x2="1202.5" y2="1693.52" gradientUnits="userSpaceOnUse">
<stop stop-color="#2CBE00"/>
<stop offset="1" stop-color="#145800"/>
</linearGradient>
<linearGradient id="paint1_linear_1254_283" x1="1202.5" y1="1693.52" x2="1202.51" y2="171.602" gradientUnits="userSpaceOnUse">
<stop stop-color="#06191D" stop-opacity="0.85"/>
<stop offset="1" stop-color="#3C9D51" stop-opacity="0.85"/>
</linearGradient>
<linearGradient id="paint2_linear_1254_283" x1="1191.44" y1="510.516" x2="1191.44" y2="1275.7" gradientUnits="userSpaceOnUse">
<stop stop-color="#2CBE00"/>
<stop offset="1" stop-color="#145800"/>
</linearGradient>
<linearGradient id="paint3_linear_1254_283" x1="1191.44" y1="1275.7" x2="1191.44" y2="510.516" gradientUnits="userSpaceOnUse">
<stop stop-color="#06191D" stop-opacity="0.85"/>
<stop offset="1" stop-color="#3C9D51" stop-opacity="0.85"/>
</linearGradient>
<linearGradient id="paint4_linear_1254_283" x1="1450.65" y1="696.133" x2="1460.15" y2="1276.13" gradientUnits="userSpaceOnUse">
<stop stop-color="#165F00"/>
<stop offset="1" stop-color="#26A201"/>
</linearGradient>
</defs>
</svg>
